<svg id="Grupo_2" data-name="Grupo 2" xmlns="http://www.w3.org/2000/svg" xmlns:xlink="http://www.w3.org/1999/xlink"
	 width="97" height="46.431" viewBox="0 0 97 46.431">
	<style>
		[data-bs-theme="dark"] .letter { fill: white }
		[data-bs-theme="dark"] .flare { fill: #69f89b }

		[data-bs-theme="light"] .letter { fill: black }
		[data-bs-theme="light"] .flare { fill: #69f89b }
	</style>
	<g>
		<path
			  d="M22.336,0,16.052,26.531C14.317,33.858,7.13,39.8,0,39.8L6.284,13.267C8.019,5.94,15.206,0,22.336,0Z"
			  fill="#fff" class="letter"/>
		<path
			  d="M197.429,34.094c-7.129,0-14.315,5.94-16.05,13.266s2.638,13.266,9.766,13.266h12.909L207.2,47.36c1.735-7.326-2.637-13.266-9.766-13.266m-4.324,19.9c.865-3.664-1.318-6.633-4.883-6.633a8.8,8.8,0,0,0,8.025-6.632c-.868,3.663,1.318,6.632,4.883,6.632a8.807,8.807,0,0,0-8.025,6.633"
			  transform="translate(-110.575 -20.829)" fill="#fff" class="letter"/>
		<path
			  d="M56.568,47.366C58.3,40.041,53.928,34.1,46.8,34.1h0L43.658,47.366C41.923,54.692,46.3,60.63,53.426,60.63h12.91L72.62,34.1h0c-7.128,0-14.316,5.942-16.051,13.267"
			  transform="translate(-26.439 -20.832)" fill="#fff" class="letter"/>
		<path
			  d="M124.733,34.1h-12.91L105.54,60.63h0c7.126,0,14.314-5.941,16.048-13.265-1.735,7.324,2.638,13.264,9.765,13.265h0L134.5,47.362c1.735-7.326-2.64-13.263-9.768-13.263"
			  transform="translate(-64.476 -20.832)" fill="#fff" class="letter"/>
		<path
			  d="M32.211,91.87A8.806,8.806,0,0,0,24.186,98.5c.865-3.664-1.318-6.633-4.883-6.633a8.8,8.8,0,0,0,8.024-6.633c-.868,3.664,1.318,6.633,4.884,6.633"
			  transform="translate(-11.793 -52.073)" fill="#69f89b" class="flare" />
		<path
			  d="M82.749,20.307a8.807,8.807,0,0,0-8.025,6.633c.865-3.664-1.318-6.633-4.883-6.633a8.8,8.8,0,0,0,8.025-6.633c-.868,3.664,1.318,6.633,4.883,6.633"
			  transform="translate(-42.667 -8.354)" fill="#69f89b" class="flare" />
		<path
			  d="M134.88,91.871a8.807,8.807,0,0,0-8.025,6.633c.865-3.664-1.318-6.633-4.883-6.633A8.8,8.8,0,0,0,130,85.238c-.868,3.664,1.318,6.633,4.883,6.633"
			  transform="translate(-74.515 -52.073)" fill="#69f89b" class="flare" />
	</g>
</svg>
